{"title":"VANish.2015.BRRip.480p.x264.AAC-VYTO [P2PDL]","uid":11674520,"size":282988698,"categoryP":"video","categoryS":"movies","magnet":"?xt=urn:btih:d8291a7f0931032739bf9a3171359638f7919c95&amp;dn=VANish.2015.BRRip.480p.x264.AAC-VYTO+%5BP2PDL%5D&amp;tr=udp%3A%2F%2Ftracker.openbittorrent.com%3A80&amp;tr=udp%3A%2F%2Fopen.demonii.com%3A1337&amp;tr=udp%3A%2F%2Ftracker.coppersurfer.tk%3A6969&amp;tr=udp%3A%2F%2Fexodus.desync.com%3A6969","seeders":2,"leechers":1,"uploader":"ValidusVyto","files":6,"time":1422800049,"description":"VANish.2015.BRRip.480p.x264.AAC-VYTO\n\n\nGenre: Action | Horror | Thriller\nIMDb: http://www.imdb.com/title/tt3058674/\n\nFormat                      : MPEG-4\nFile size                   : 266 MiB\nDuration                    : 1h 19m\nOverall bit rate            : 469 Kbps\n\nVideo\nFormat                      : AVC\nDuration                    : 1h 19mn\nBit rate                    : 434 Kbps\nWidth                       : 720 pixels\nHeight                      : 304 pixels\nDisplay aspect ratio        : 2.35:1\nFrame rate mode             : Constant\nFrame rate                  : 23.976 fps\nBit depth                   : 8 bits\nStream size                 : 246 MiB (92%)\nWriting library             : x264 core 142 r2491 24e4fed\n\nAudio\nFormat                      : AAC\nBit rate mode               : Variable\nBit rate                    : 32.0 Kbps\nChannel(s)                  : 2 channels \nChannel positions           : Front: L R \nSampling rate               : 48.0 KHz\nStream size                 : 18.1 MiB (7%)\nLanguage                    : English\n\nSubtitle                    : Yes(English)\nSource                      : 720p.BluRay.x264-ROVERS\n &lt;a href=&quot;\nhttp://someimage.com/sQJ0BUA&quot; rel=&quot;nofollow&quot; target=&quot;_NEW&quot;&gt;\nhttp://someimage.com/sQJ0BUA&lt;/a&gt; &lt;a href=&quot;\nhttp://someimage.com/WNgsY7N&quot; rel=&quot;nofollow&quot; target=&quot;_NEW&quot;&gt;\nhttp://someimage.com/WNgsY7N&lt;/a&gt; &lt;a href=&quot;\nhttp://someimage.com/TabTR9I&quot; rel=&quot;nofollow&quot; target=&quot;_NEW&quot;&gt;\nhttp://someimage.com/TabTR9I&lt;/a&gt; &lt;a href=&quot;\nhttp://someimage.com/6GNO9BF&quot; rel=&quot;nofollow&quot; target=&quot;_NEW&quot;&gt;\nhttp://someimage.com/6GNO9BF&lt;/a&gt; &lt;a href=&quot;\nhttp://someimage.com/fCipaCH&quot; rel=&quot;nofollow&quot; target=&quot;_NEW&quot;&gt;\nhttp://someimage.com/fCipaCH&lt;/a&gt; &lt;a href=&quot;\nhttp://someimage.com/n2aO2LI&quot; rel=&quot;nofollow&quot; target=&quot;_NEW&quot;&gt;\nhttp://someimage.com/n2aO2LI&lt;/a&gt; &lt;a href=&quot;\nhttp://someimage.com/5KKDEOK&quot; rel=&quot;nofollow&quot; target=&quot;_NEW&quot;&gt;\nhttp://someimage.com/5KKDEOK&lt;/a&gt; &lt;a href=&quot;\nhttp://someimage.com/ha82qnb&quot; rel=&quot;nofollow&quot; target=&quot;_NEW&quot;&gt;\nhttp://someimage.com/ha82qnb&lt;/a&gt; &lt;a href=&quot;\nhttp://someimage.com/s2p46Ns&quot; rel=&quot;nofollow&quot; target=&quot;_NEW&quot;&gt;\nhttp://someimage.com/s2p46Ns&lt;/a&gt;\n\n----------------------------------------------------------------------------------------------------\n\n\nEncoder Notes: Looking For Early Access To Anything You Can Provide DVDScr, R5, DVDR, BluRay, Direct\nAudio, Music Releases and Seedboxes. If You Got anything to offer please contact us.\n\nFind us! Support us!","torrent":{"xt":"urn:btih:d8291a7f0931032739bf9a3171359638f7919c95","amp;dn":"VANish.2015.BRRip.480p.x264.AAC-VYTO+%5BP2PDL%5D","amp;tr":["udp%3A%2F%2Ftracker.openbittorrent.com%3A80","udp%3A%2F%2Fopen.demonii.com%3A1337","udp%3A%2F%2Ftracker.coppersurfer.tk%3A6969","udp%3A%2F%2Fexodus.desync.com%3A6969"],"infoHash":"d8291a7f0931032739bf9a3171359638f7919c95","infoHashBuffer":{"type":"Buffer","data":[216,41,26,127,9,49,3,39,57,191,154,49,113,53,150,56,247,145,156,149]},"announce":[],"urlList":[]}}